solid component1:solid2
  facet normal 1.000000e+00 -0.000000e+00 -0.000000e+00
    outer loop
      vertex 2.000000e-02 -2.000000e-02 5.000000e-03
      vertex 2.000000e-02 -2.000000e-02 0.000000e+00
      vertex 2.000000e-02 2.000000e-02 0.000000e+00
    endloop
  endfacet
  facet normal 1.000000e+00 -0.000000e+00 -0.000000e+00
    outer loop
      vertex 2.000000e-02 -2.000000e-02 5.000000e-03
      vertex 2.000000e-02 2.000000e-02 0.000000e+00
      vertex 2.000000e-02 2.000000e-02 5.000000e-03
    endloop
  endfacet
  facet normal -0.000000e+00 1.000000e+00 -0.000000e+00
    outer loop
      vertex 2.000000e-02 2.000000e-02 5.000000e-03
      vertex 2.000000e-02 2.000000e-02 0.000000e+00
      vertex -2.000000e-02 2.000000e-02 0.000000e+00
    endloop
  endfacet
  facet normal -0.000000e+00 1.000000e+00 -0.000000e+00
    outer loop
      vertex 2.000000e-02 2.000000e-02 5.000000e-03
      vertex -2.000000e-02 2.000000e-02 0.000000e+00
      vertex -2.000000e-02 2.000000e-02 5.000000e-03
    endloop
  endfacet
  facet normal -1.000000e+00 -0.000000e+00 -0.000000e+00
    outer loop
      vertex -2.000000e-02 2.000000e-02 5.000000e-03
      vertex -2.000000e-02 2.000000e-02 0.000000e+00
      vertex -2.000000e-02 -2.000000e-02 0.000000e+00
    endloop
  endfacet
  facet normal -1.000000e+00 -0.000000e+00 -0.000000e+00
    outer loop
      vertex -2.000000e-02 2.000000e-02 5.000000e-03
      vertex -2.000000e-02 -2.000000e-02 0.000000e+00
      vertex -2.000000e-02 -2.000000e-02 5.000000e-03
    endloop
  endfacet
  facet normal -0.000000e+00 -1.000000e+00 -0.000000e+00
    outer loop
      vertex -2.000000e-02 -2.000000e-02 5.000000e-03
      vertex -2.000000e-02 -2.000000e-02 0.000000e+00
      vertex 2.000000e-02 -2.000000e-02 0.000000e+00
    endloop
  endfacet
  facet normal -0.000000e+00 -1.000000e+00 -0.000000e+00
    outer loop
      vertex -2.000000e-02 -2.000000e-02 5.000000e-03
      vertex 2.000000e-02 -2.000000e-02 0.000000e+00
      vertex 2.000000e-02 -2.000000e-02 5.000000e-03
    endloop
  endfacet
  facet normal -0.000000e+00 -0.000000e+00 -1.000000e+00
    outer loop
      vertex 2.000000e-02 2.000000e-02 0.000000e+00
      vertex 2.000000e-02 -2.000000e-02 0.000000e+00
      vertex -2.000000e-02 -2.000000e-02 0.000000e+00
    endloop
  endfacet
  facet normal -0.000000e+00 -0.000000e+00 -1.000000e+00
    outer loop
      vertex 2.000000e-02 2.000000e-02 0.000000e+00
      vertex -2.000000e-02 -2.000000e-02 0.000000e+00
      vertex -2.000000e-02 2.000000e-02 0.000000e+00
    endloop
  endfacet
  facet normal 0.000000e+00 0.000000e+00 1.000000e+00
    outer loop
      vertex 2.000000e-02 -2.000000e-02 5.000000e-03
      vertex 2.000000e-02 2.000000e-02 5.000000e-03
      vertex -2.000000e-02 2.000000e-02 5.000000e-03
    endloop
  endfacet
  facet normal 0.000000e+00 0.000000e+00 1.000000e+00
    outer loop
      vertex 2.000000e-02 -2.000000e-02 5.000000e-03
      vertex -2.000000e-02 2.000000e-02 5.000000e-03
      vertex -2.000000e-02 -2.000000e-02 5.000000e-03
    endloop
  endfacet
endsolid component1:solid2
solid component1:solid1
  facet normal 8.464496e-01 -3.947060e-01 3.511235e-01
    outer loop
      vertex 0.000000e+00 0.000000e+00 4.500000e-02
      vertex 1.299038e-02 -7.500000e-03 5.000000e-03
      vertex 1.409539e-02 -5.130302e-03 5.000000e-03
    endloop
  endfacet
  facet normal 2.417250e-01 -9.021301e-01 3.511235e-01
    outer loop
      vertex 0.000000e+00 0.000000e+00 4.500000e-02
      vertex 2.604723e-03 -1.477212e-02 5.000000e-03
      vertex 5.130302e-03 -1.409539e-02 5.000000e-03
    endloop
  endfacet
  facet normal -5.356939e-01 -7.650502e-01 3.511235e-01
    outer loop
      vertex 0.000000e+00 0.000000e+00 4.500000e-02
      vertex -9.641814e-03 -1.149067e-02 5.000000e-03
      vertex -7.500000e-03 -1.299038e-02 5.000000e-03
    endloop
  endfacet
  facet normal -9.303999e-01 -8.139944e-02 3.511235e-01
    outer loop
      vertex 0.000000e+00 0.000000e+00 4.500000e-02
      vertex -1.500000e-02 1.836970e-18 5.000000e-03
      vertex -1.477212e-02 -2.604723e-03 5.000000e-03
    endloop
  endfacet
  facet normal -7.650502e-01 5.356939e-01 3.511235e-01
    outer loop
      vertex 0.000000e+00 0.000000e+00 4.500000e-02
      vertex -1.149067e-02 9.641814e-03 5.000000e-03
      vertex -1.299038e-02 7.500000e-03 5.000000e-03
    endloop
  endfacet
  facet normal -8.139944e-02 9.303999e-01 3.511235e-01
    outer loop
      vertex 0.000000e+00 0.000000e+00 4.500000e-02
      vertex 9.184851e-19 1.500000e-02 5.000000e-03
      vertex -2.604723e-03 1.477212e-02 5.000000e-03
    endloop
  endfacet
  facet normal 6.604051e-01 6.604051e-01 3.511235e-01
    outer loop
      vertex 0.000000e+00 0.000000e+00 4.500000e-02
      vertex 1.149067e-02 9.641814e-03 5.000000e-03
      vertex 9.641814e-03 1.149067e-02 5.000000e-03
    endloop
  endfacet
  facet normal 9.303999e-01 8.139944e-02 3.511235e-01
    outer loop
      vertex 0.000000e+00 0.000000e+00 4.500000e-02
      vertex 1.500000e-02 0.000000e+00 5.000000e-03
      vertex 1.477212e-02 2.604723e-03 5.000000e-03
    endloop
  endfacet
  facet normal -9.021301e-01 -2.417250e-01 3.511235e-01
    outer loop
      vertex -1.409539e-02 -5.130302e-03 5.000000e-03
      vertex 0.000000e+00 0.000000e+00 4.500000e-02
      vertex -1.477212e-02 -2.604723e-03 5.000000e-03
    endloop
  endfacet
  facet normal -3.947059e-01 -8.464496e-01 3.511235e-01
    outer loop
      vertex -5.130302e-03 -1.409539e-02 5.000000e-03
      vertex 0.000000e+00 0.000000e+00 4.500000e-02
      vertex -7.500000e-03 -1.299038e-02 5.000000e-03
    endloop
  endfacet
  facet normal 3.947060e-01 -8.464496e-01 3.511235e-01
    outer loop
      vertex 7.500000e-03 -1.299038e-02 5.000000e-03
      vertex 0.000000e+00 0.000000e+00 4.500000e-02
      vertex 5.130302e-03 -1.409539e-02 5.000000e-03
    endloop
  endfacet
  facet normal 9.021301e-01 -2.417250e-01 3.511235e-01
    outer loop
      vertex 1.477212e-02 -2.604723e-03 5.000000e-03
      vertex 0.000000e+00 0.000000e+00 4.500000e-02
      vertex 1.409539e-02 -5.130302e-03 5.000000e-03
    endloop
  endfacet
  facet normal 5.356939e-01 7.650502e-01 3.511235e-01
    outer loop
      vertex 7.500000e-03 1.299038e-02 5.000000e-03
      vertex 0.000000e+00 0.000000e+00 4.500000e-02
      vertex 9.641814e-03 1.149067e-02 5.000000e-03
    endloop
  endfacet
  facet normal -2.417250e-01 9.021301e-01 3.511235e-01
    outer loop
      vertex -5.130302e-03 1.409539e-02 5.000000e-03
      vertex 0.000000e+00 0.000000e+00 4.500000e-02
      vertex -2.604723e-03 1.477212e-02 5.000000e-03
    endloop
  endfacet
  facet normal -8.464496e-01 3.947059e-01 3.511235e-01
    outer loop
      vertex -1.409539e-02 5.130302e-03 5.000000e-03
      vertex 0.000000e+00 0.000000e+00 4.500000e-02
      vertex -1.299038e-02 7.500000e-03 5.000000e-03
    endloop
  endfacet
  facet normal 9.303999e-01 -8.139944e-02 3.511235e-01
    outer loop
      vertex 1.477212e-02 -2.604723e-03 5.000000e-03
      vertex 1.500000e-02 0.000000e+00 5.000000e-03
      vertex 0.000000e+00 0.000000e+00 4.500000e-02
    endloop
  endfacet
  facet normal 7.650502e-01 -5.356939e-01 3.511235e-01
    outer loop
      vertex 1.149067e-02 -9.641814e-03 5.000000e-03
      vertex 1.299038e-02 -7.500000e-03 5.000000e-03
      vertex 0.000000e+00 0.000000e+00 4.500000e-02
    endloop
  endfacet
  facet normal 6.604051e-01 -6.604051e-01 3.511235e-01
    outer loop
      vertex 9.641814e-03 -1.149067e-02 5.000000e-03
      vertex 1.149067e-02 -9.641814e-03 5.000000e-03
      vertex 0.000000e+00 0.000000e+00 4.500000e-02
    endloop
  endfacet
  facet normal 5.356939e-01 -7.650502e-01 3.511235e-01
    outer loop
      vertex 7.500000e-03 -1.299038e-02 5.000000e-03
      vertex 9.641814e-03 -1.149067e-02 5.000000e-03
      vertex 0.000000e+00 0.000000e+00 4.500000e-02
    endloop
  endfacet
  facet normal 8.139944e-02 -9.303999e-01 3.511235e-01
    outer loop
      vertex -2.755455e-18 -1.500000e-02 5.000000e-03
      vertex 2.604723e-03 -1.477212e-02 5.000000e-03
      vertex 0.000000e+00 0.000000e+00 4.500000e-02
    endloop
  endfacet
  facet normal -8.139944e-02 -9.303999e-01 3.511235e-01
    outer loop
      vertex -2.604723e-03 -1.477212e-02 5.000000e-03
      vertex -2.755455e-18 -1.500000e-02 5.000000e-03
      vertex 0.000000e+00 0.000000e+00 4.500000e-02
    endloop
  endfacet
  facet normal -2.417250e-01 -9.021301e-01 3.511235e-01
    outer loop
      vertex -2.604723e-03 -1.477212e-02 5.000000e-03
      vertex 0.000000e+00 0.000000e+00 4.500000e-02
      vertex -5.130302e-03 -1.409539e-02 5.000000e-03
    endloop
  endfacet
  facet normal -6.604051e-01 -6.604051e-01 3.511235e-01
    outer loop
      vertex -1.149067e-02 -9.641814e-03 5.000000e-03
      vertex -9.641814e-03 -1.149067e-02 5.000000e-03
      vertex 0.000000e+00 0.000000e+00 4.500000e-02
    endloop
  endfacet
  facet normal -7.650502e-01 -5.356939e-01 3.511235e-01
    outer loop
      vertex -1.299038e-02 -7.500000e-03 5.000000e-03
      vertex -1.149067e-02 -9.641814e-03 5.000000e-03
      vertex 0.000000e+00 0.000000e+00 4.500000e-02
    endloop
  endfacet
  facet normal -8.464496e-01 -3.947060e-01 3.511235e-01
    outer loop
      vertex -1.299038e-02 -7.500000e-03 5.000000e-03
      vertex 0.000000e+00 0.000000e+00 4.500000e-02
      vertex -1.409539e-02 -5.130302e-03 5.000000e-03
    endloop
  endfacet
  facet normal -9.303999e-01 8.139944e-02 3.511235e-01
    outer loop
      vertex -1.477212e-02 2.604723e-03 5.000000e-03
      vertex -1.500000e-02 1.836970e-18 5.000000e-03
      vertex 0.000000e+00 0.000000e+00 4.500000e-02
    endloop
  endfacet
  facet normal -9.021301e-01 2.417250e-01 3.511235e-01
    outer loop
      vertex -1.409539e-02 5.130302e-03 5.000000e-03
      vertex -1.477212e-02 2.604723e-03 5.000000e-03
      vertex 0.000000e+00 0.000000e+00 4.500000e-02
    endloop
  endfacet
  facet normal -6.604051e-01 6.604051e-01 3.511235e-01
    outer loop
      vertex -9.641814e-03 1.149067e-02 5.000000e-03
      vertex -1.149067e-02 9.641814e-03 5.000000e-03
      vertex 0.000000e+00 0.000000e+00 4.500000e-02
    endloop
  endfacet
  facet normal -5.356939e-01 7.650502e-01 3.511235e-01
    outer loop
      vertex -7.500000e-03 1.299038e-02 5.000000e-03
      vertex -9.641814e-03 1.149067e-02 5.000000e-03
      vertex 0.000000e+00 0.000000e+00 4.500000e-02
    endloop
  endfacet
  facet normal -3.947059e-01 8.464496e-01 3.511235e-01
    outer loop
      vertex -5.130302e-03 1.409539e-02 5.000000e-03
      vertex -7.500000e-03 1.299038e-02 5.000000e-03
      vertex 0.000000e+00 0.000000e+00 4.500000e-02
    endloop
  endfacet
  facet normal 8.139944e-02 9.303999e-01 3.511235e-01
    outer loop
      vertex 2.604723e-03 1.477212e-02 5.000000e-03
      vertex 9.184851e-19 1.500000e-02 5.000000e-03
      vertex 0.000000e+00 0.000000e+00 4.500000e-02
    endloop
  endfacet
  facet normal 2.417250e-01 9.021301e-01 3.511235e-01
    outer loop
      vertex 5.130302e-03 1.409539e-02 5.000000e-03
      vertex 2.604723e-03 1.477212e-02 5.000000e-03
      vertex 0.000000e+00 0.000000e+00 4.500000e-02
    endloop
  endfacet
  facet normal 3.947059e-01 8.464496e-01 3.511235e-01
    outer loop
      vertex 7.500000e-03 1.299038e-02 5.000000e-03
      vertex 5.130302e-03 1.409539e-02 5.000000e-03
      vertex 0.000000e+00 0.000000e+00 4.500000e-02
    endloop
  endfacet
  facet normal 7.650502e-01 5.356939e-01 3.511235e-01
    outer loop
      vertex 1.299038e-02 7.500000e-03 5.000000e-03
      vertex 1.149067e-02 9.641814e-03 5.000000e-03
      vertex 0.000000e+00 0.000000e+00 4.500000e-02
    endloop
  endfacet
  facet normal 8.464496e-01 3.947059e-01 3.511235e-01
    outer loop
      vertex 1.409539e-02 5.130302e-03 5.000000e-03
      vertex 1.299038e-02 7.500000e-03 5.000000e-03
      vertex 0.000000e+00 0.000000e+00 4.500000e-02
    endloop
  endfacet
  facet normal 9.021301e-01 2.417250e-01 3.511235e-01
    outer loop
      vertex 1.409539e-02 5.130302e-03 5.000000e-03
      vertex 0.000000e+00 0.000000e+00 4.500000e-02
      vertex 1.477212e-02 2.604723e-03 5.000000e-03
    endloop
  endfacet
  facet normal 0.000000e+00 0.000000e+00 -1.000000e+00
    outer loop
      vertex 2.604723e-03 -1.477212e-02 5.000000e-03
      vertex -2.755455e-18 -1.500000e-02 5.000000e-03
      vertex -2.604723e-03 -1.477212e-02 5.000000e-03
    endloop
  endfacet
  facet normal 0.000000e+00 0.000000e+00 -1.000000e+00
    outer loop
      vertex 2.604723e-03 1.477212e-02 5.000000e-03
      vertex -2.604723e-03 1.477212e-02 5.000000e-03
      vertex 9.184851e-19 1.500000e-02 5.000000e-03
    endloop
  endfacet
  facet normal 0.000000e+00 0.000000e+00 -1.000000e+00
    outer loop
      vertex 2.604723e-03 1.477212e-02 5.000000e-03
      vertex -5.130302e-03 1.409539e-02 5.000000e-03
      vertex -2.604723e-03 1.477212e-02 5.000000e-03
    endloop
  endfacet
  facet normal 0.000000e+00 0.000000e+00 -1.000000e+00
    outer loop
      vertex 5.130302e-03 1.409539e-02 5.000000e-03
      vertex -5.130302e-03 1.409539e-02 5.000000e-03
      vertex 2.604723e-03 1.477212e-02 5.000000e-03
    endloop
  endfacet
  facet normal 0.000000e+00 0.000000e+00 -1.000000e+00
    outer loop
      vertex 5.130302e-03 1.409539e-02 5.000000e-03
      vertex -7.500000e-03 1.299038e-02 5.000000e-03
      vertex -5.130302e-03 1.409539e-02 5.000000e-03
    endloop
  endfacet
  facet normal 0.000000e+00 0.000000e+00 -1.000000e+00
    outer loop
      vertex 7.500000e-03 1.299038e-02 5.000000e-03
      vertex -7.500000e-03 1.299038e-02 5.000000e-03
      vertex 5.130302e-03 1.409539e-02 5.000000e-03
    endloop
  endfacet
  facet normal 0.000000e+00 0.000000e+00 -1.000000e+00
    outer loop
      vertex 7.500000e-03 1.299038e-02 5.000000e-03
      vertex -9.641814e-03 1.149067e-02 5.000000e-03
      vertex -7.500000e-03 1.299038e-02 5.000000e-03
    endloop
  endfacet
  facet normal 0.000000e+00 0.000000e+00 -1.000000e+00
    outer loop
      vertex 9.641814e-03 1.149067e-02 5.000000e-03
      vertex -9.641814e-03 1.149067e-02 5.000000e-03
      vertex 7.500000e-03 1.299038e-02 5.000000e-03
    endloop
  endfacet
  facet normal 0.000000e+00 0.000000e+00 -1.000000e+00
    outer loop
      vertex 9.641814e-03 1.149067e-02 5.000000e-03
      vertex -1.149067e-02 9.641814e-03 5.000000e-03
      vertex -9.641814e-03 1.149067e-02 5.000000e-03
    endloop
  endfacet
  facet normal 0.000000e+00 0.000000e+00 -1.000000e+00
    outer loop
      vertex 1.149067e-02 9.641814e-03 5.000000e-03
      vertex -1.149067e-02 9.641814e-03 5.000000e-03
      vertex 9.641814e-03 1.149067e-02 5.000000e-03
    endloop
  endfacet
  facet normal 0.000000e+00 0.000000e+00 -1.000000e+00
    outer loop
      vertex 1.149067e-02 9.641814e-03 5.000000e-03
      vertex -1.299038e-02 7.500000e-03 5.000000e-03
      vertex -1.149067e-02 9.641814e-03 5.000000e-03
    endloop
  endfacet
  facet normal 0.000000e+00 0.000000e+00 -1.000000e+00
    outer loop
      vertex 1.299038e-02 7.500000e-03 5.000000e-03
      vertex -1.299038e-02 7.500000e-03 5.000000e-03
      vertex 1.149067e-02 9.641814e-03 5.000000e-03
    endloop
  endfacet
  facet normal 0.000000e+00 0.000000e+00 -1.000000e+00
    outer loop
      vertex 1.299038e-02 7.500000e-03 5.000000e-03
      vertex -1.409539e-02 5.130302e-03 5.000000e-03
      vertex -1.299038e-02 7.500000e-03 5.000000e-03
    endloop
  endfacet
  facet normal 0.000000e+00 0.000000e+00 -1.000000e+00
    outer loop
      vertex 1.409539e-02 5.130302e-03 5.000000e-03
      vertex -1.409539e-02 5.130302e-03 5.000000e-03
      vertex 1.299038e-02 7.500000e-03 5.000000e-03
    endloop
  endfacet
  facet normal 0.000000e+00 0.000000e+00 -1.000000e+00
    outer loop
      vertex 1.409539e-02 5.130302e-03 5.000000e-03
      vertex -1.477212e-02 2.604723e-03 5.000000e-03
      vertex -1.409539e-02 5.130302e-03 5.000000e-03
    endloop
  endfacet
  facet normal 0.000000e+00 0.000000e+00 -1.000000e+00
    outer loop
      vertex 1.477212e-02 2.604723e-03 5.000000e-03
      vertex -1.477212e-02 2.604723e-03 5.000000e-03
      vertex 1.409539e-02 5.130302e-03 5.000000e-03
    endloop
  endfacet
  facet normal 0.000000e+00 0.000000e+00 -1.000000e+00
    outer loop
      vertex 1.477212e-02 2.604723e-03 5.000000e-03
      vertex -1.500000e-02 1.836970e-18 5.000000e-03
      vertex -1.477212e-02 2.604723e-03 5.000000e-03
    endloop
  endfacet
  facet normal 0.000000e+00 0.000000e+00 -1.000000e+00
    outer loop
      vertex 1.500000e-02 0.000000e+00 5.000000e-03
      vertex -1.500000e-02 1.836970e-18 5.000000e-03
      vertex 1.477212e-02 2.604723e-03 5.000000e-03
    endloop
  endfacet
  facet normal 0.000000e+00 0.000000e+00 -1.000000e+00
    outer loop
      vertex 1.500000e-02 0.000000e+00 5.000000e-03
      vertex -1.477212e-02 -2.604723e-03 5.000000e-03
      vertex -1.500000e-02 1.836970e-18 5.000000e-03
    endloop
  endfacet
  facet normal 0.000000e+00 0.000000e+00 -1.000000e+00
    outer loop
      vertex 1.477212e-02 -2.604723e-03 5.000000e-03
      vertex -1.477212e-02 -2.604723e-03 5.000000e-03
      vertex 1.500000e-02 0.000000e+00 5.000000e-03
    endloop
  endfacet
  facet normal 0.000000e+00 0.000000e+00 -1.000000e+00
    outer loop
      vertex 1.477212e-02 -2.604723e-03 5.000000e-03
      vertex -1.409539e-02 -5.130302e-03 5.000000e-03
      vertex -1.477212e-02 -2.604723e-03 5.000000e-03
    endloop
  endfacet
  facet normal 0.000000e+00 0.000000e+00 -1.000000e+00
    outer loop
      vertex 1.409539e-02 -5.130302e-03 5.000000e-03
      vertex -1.409539e-02 -5.130302e-03 5.000000e-03
      vertex 1.477212e-02 -2.604723e-03 5.000000e-03
    endloop
  endfacet
  facet normal 0.000000e+00 0.000000e+00 -1.000000e+00
    outer loop
      vertex 1.409539e-02 -5.130302e-03 5.000000e-03
      vertex -1.299038e-02 -7.500000e-03 5.000000e-03
      vertex -1.409539e-02 -5.130302e-03 5.000000e-03
    endloop
  endfacet
  facet normal 0.000000e+00 0.000000e+00 -1.000000e+00
    outer loop
      vertex 1.299038e-02 -7.500000e-03 5.000000e-03
      vertex -1.299038e-02 -7.500000e-03 5.000000e-03
      vertex 1.409539e-02 -5.130302e-03 5.000000e-03
    endloop
  endfacet
  facet normal 0.000000e+00 0.000000e+00 -1.000000e+00
    outer loop
      vertex 1.299038e-02 -7.500000e-03 5.000000e-03
      vertex -1.149067e-02 -9.641814e-03 5.000000e-03
      vertex -1.299038e-02 -7.500000e-03 5.000000e-03
    endloop
  endfacet
  facet normal 0.000000e+00 0.000000e+00 -1.000000e+00
    outer loop
      vertex 1.149067e-02 -9.641814e-03 5.000000e-03
      vertex -1.149067e-02 -9.641814e-03 5.000000e-03
      vertex 1.299038e-02 -7.500000e-03 5.000000e-03
    endloop
  endfacet
  facet normal 0.000000e+00 0.000000e+00 -1.000000e+00
    outer loop
      vertex 1.149067e-02 -9.641814e-03 5.000000e-03
      vertex -9.641814e-03 -1.149067e-02 5.000000e-03
      vertex -1.149067e-02 -9.641814e-03 5.000000e-03
    endloop
  endfacet
  facet normal 0.000000e+00 0.000000e+00 -1.000000e+00
    outer loop
      vertex 9.641814e-03 -1.149067e-02 5.000000e-03
      vertex -9.641814e-03 -1.149067e-02 5.000000e-03
      vertex 1.149067e-02 -9.641814e-03 5.000000e-03
    endloop
  endfacet
  facet normal 0.000000e+00 0.000000e+00 -1.000000e+00
    outer loop
      vertex 9.641814e-03 -1.149067e-02 5.000000e-03
      vertex -7.500000e-03 -1.299038e-02 5.000000e-03
      vertex -9.641814e-03 -1.149067e-02 5.000000e-03
    endloop
  endfacet
  facet normal 0.000000e+00 0.000000e+00 -1.000000e+00
    outer loop
      vertex 7.500000e-03 -1.299038e-02 5.000000e-03
      vertex -7.500000e-03 -1.299038e-02 5.000000e-03
      vertex 9.641814e-03 -1.149067e-02 5.000000e-03
    endloop
  endfacet
  facet normal 0.000000e+00 0.000000e+00 -1.000000e+00
    outer loop
      vertex 7.500000e-03 -1.299038e-02 5.000000e-03
      vertex -5.130302e-03 -1.409539e-02 5.000000e-03
      vertex -7.500000e-03 -1.299038e-02 5.000000e-03
    endloop
  endfacet
  facet normal 0.000000e+00 0.000000e+00 -1.000000e+00
    outer loop
      vertex 5.130302e-03 -1.409539e-02 5.000000e-03
      vertex -5.130302e-03 -1.409539e-02 5.000000e-03
      vertex 7.500000e-03 -1.299038e-02 5.000000e-03
    endloop
  endfacet
  facet normal 0.000000e+00 0.000000e+00 -1.000000e+00
    outer loop
      vertex 5.130302e-03 -1.409539e-02 5.000000e-03
      vertex -2.604723e-03 -1.477212e-02 5.000000e-03
      vertex -5.130302e-03 -1.409539e-02 5.000000e-03
    endloop
  endfacet
  facet normal 0.000000e+00 0.000000e+00 -1.000000e+00
    outer loop
      vertex 2.604723e-03 -1.477212e-02 5.000000e-03
      vertex -2.604723e-03 -1.477212e-02 5.000000e-03
      vertex 5.130302e-03 -1.409539e-02 5.000000e-03
    endloop
  endfacet
endsolid component1:solid1
